<svg width="100" height="100" viewBox="0 0 100 100" fill="none" xmlns="http://www.w3.org/2000/svg">
<path d="M50 8.33331C26.925 8.33331 8.33337 26.925 8.33337 50C8.33337 73.075 26.925 91.6666 50 91.6666C73.075 91.6666 91.6667 73.075 91.6667 50C91.6667 26.925 73.075 8.33331 50 8.33331ZM50 83.3333C31.5917 83.3333 16.6667 68.4083 16.6667 50C16.6667 31.5916 31.5917 16.6666 50 16.6666C68.4084 16.6666 83.3334 31.5916 83.3334 50C83.3334 68.4083 68.4084 83.3333 50 83.3333Z" fill="hsl(45, 100%, 51%)"/>
<path d="M50 25C36.25 25 25 36.25 25 50C25 63.75 36.25 75 50 75C63.75 75 75 63.75 75 50C75 36.25 63.75 25 50 25ZM50 66.6667C40.8 66.6667 33.3334 59.2 33.3334 50C33.3334 40.8 40.8 33.3333 50 33.3333C59.2 33.3333 66.6667 40.8 66.6667 50C66.6667 59.2 59.2 66.6667 50 66.6667Z" fill="hsl(19, 56%, 41%)"/>
<path d="M50 45.8333L29.1667 33.3333L29.1667 58.3333L50 45.8333Z" fill="hsl(45, 100%, 51%)"/>
<path d="M50 54.1667L29.1667 66.6667L29.1667 41.6667L50 54.1667Z" fill="hsl(45, 100%, 51%)" opacity="0.3"/>
<path d="M50 45.8333L70.8334 33.3333V58.3333L50 45.8333Z" fill="hsl(45, 100%, 51%)"/>
<path d="M50 54.1667L70.8334 66.6667V41.6667L50 54.1667Z" fill="hsl(45, 100%, 51%)" opacity="0.3"/>
<path d="M54.1667 50L66.6667 29.1667H41.6667L54.1667 50Z" fill="hsl(45, 100%, 51%)" opacity="0.3"/>
<path d="M45.8334 50L33.3334 29.1667H58.3334L45.8334 50Z" fill="hsl(45, 100%, 51%)"/>
<path d="M54.1667 50L66.6667 70.8334H41.6667L54.1667 50Z" fill="hsl(45, 100%, 51%)" opacity="0.3"/>
<path d="M45.8334 50L33.3334 70.8334H58.3334L45.8334 50Z" fill="hsl(45, 100%, 51%)"/>
</svg>
